<svg width="232" height="132" viewBox="0 0 232 132" fill="none" xmlns="http://www.w3.org/2000/svg">
<path d="M72.7964 56.074V36.8035H76.7219L83.4309 49.2936L90.1399 36.8035H94.0653V56.074H89.4261V46.4744L84.2873 56.074H82.5744L77.4356 46.4744V56.074H72.7964Z" fill="#562212"/>
<path d="M107.746 56.6093C105.807 56.6093 104.106 56.1751 102.642 55.3067C101.179 54.4384 100.037 53.2429 99.2166 51.7203C98.4078 50.1858 98.0033 48.4253 98.0033 46.4387C98.0033 44.4284 98.4197 42.662 99.2523 41.1394C100.085 39.6049 101.233 38.4094 102.696 37.5529C104.159 36.6965 105.842 36.2682 107.746 36.2682C109.685 36.2682 111.386 36.7024 112.849 37.5708C114.324 38.4391 115.472 39.6406 116.292 41.1751C117.113 42.6977 117.524 44.4522 117.524 46.4387C117.524 48.4372 117.107 50.2036 116.275 51.7381C115.454 53.2607 114.306 54.4562 112.831 55.3246C111.368 56.181 109.673 56.6093 107.746 56.6093ZM107.746 52.0771C109.304 52.0771 110.464 51.5537 111.225 50.5069C111.998 49.4483 112.385 48.0922 112.385 46.4387C112.385 44.7258 111.992 43.3578 111.207 42.3348C110.434 41.3119 109.28 40.8004 107.746 40.8004C106.687 40.8004 105.819 41.0383 105.141 41.5141C104.462 41.9899 103.957 42.6501 103.624 43.4946C103.303 44.3392 103.142 45.3206 103.142 46.4387C103.142 48.1636 103.529 49.5375 104.302 50.5605C105.087 51.5716 106.235 52.0771 107.746 52.0771Z" fill="#562212"/>
<path d="M130.654 34.6624C129.608 34.6624 128.656 34.4066 127.799 33.8951C126.943 33.3836 126.259 32.6996 125.748 31.8432C125.236 30.9867 124.98 30.0351 124.98 28.9883H128.727C128.727 29.5236 128.912 29.9815 129.28 30.3622C129.661 30.7309 130.119 30.9153 130.654 30.9153C131.19 30.9153 131.642 30.7309 132.01 30.3622C132.391 29.9815 132.581 29.5236 132.581 28.9883H136.328C136.328 30.0351 136.073 30.9867 135.561 31.8432C135.05 32.6996 134.366 33.3836 133.509 33.8951C132.653 34.4066 131.701 34.6624 130.654 34.6624ZM138.612 36.8035V56.074H133.973V44.2976L125.266 56.074H121.412V36.8035H126.051V48.1874L134.794 36.8035H138.612Z" fill="#562212"/>
<path d="M28.8787 87.8524C27.0587 87.8405 25.5064 87.4479 24.2217 86.6747C22.937 85.8896 21.9378 84.7417 21.224 83.231C20.5103 81.7203 20.1118 79.8706 20.0285 77.6818C19.981 76.6707 19.9929 75.5585 20.0642 74.3452C20.1475 73.1319 20.2784 71.9661 20.4568 70.848C20.6471 69.7298 20.885 68.8079 21.1705 68.0823C21.4917 67.2139 21.9437 66.411 22.5266 65.6735C23.1213 64.9241 23.7875 64.3055 24.525 63.8178C25.2744 63.3063 26.113 62.9078 27.0408 62.6223C27.9687 62.3369 28.9382 62.1168 29.9493 61.9622C30.9723 61.7956 31.9953 61.6529 33.0183 61.5339C34.0413 61.4031 35.0167 61.2484 35.9445 61.07L36.2657 63.9249C35.6114 64.0676 34.8382 64.1925 33.9461 64.2996C33.0539 64.3948 32.1261 64.5078 31.1626 64.6386C30.211 64.7695 29.295 64.9538 28.4148 65.1917C27.5464 65.4177 26.797 65.733 26.1665 66.1374C25.2387 66.6965 24.525 67.5351 24.0254 68.6533C23.5377 69.7595 23.2403 71.0026 23.1332 72.3825C23.8707 71.2405 24.8283 70.4019 26.006 69.8666C27.1836 69.3313 28.4386 69.0637 29.7708 69.0637C31.4957 69.0637 32.9826 69.4681 34.2316 70.277C35.4806 71.074 36.4382 72.1743 37.1043 73.578C37.7823 74.9816 38.1214 76.5815 38.1214 78.3777C38.1214 80.281 37.7407 81.9463 36.9794 83.3738C36.2181 84.8012 35.1416 85.9075 33.7498 86.6926C32.37 87.4777 30.7462 87.8642 28.8787 87.8524ZM29.075 84.8369C30.9425 84.8369 32.3581 84.26 33.3216 83.1061C34.2851 81.9404 34.7669 80.394 34.7669 78.4669C34.7669 76.4923 34.2673 74.94 33.2681 73.8099C32.2689 72.668 30.8652 72.097 29.0571 72.097C27.2252 72.097 25.8216 72.668 24.8462 73.8099C23.8826 74.94 23.4009 76.4923 23.4009 78.4669C23.4009 80.4535 23.8886 82.0117 24.864 83.1418C25.8394 84.2719 27.2431 84.8369 29.075 84.8369Z" fill="#562212"/>
<path d="M57.8331 68.0288V87.2992H54.7641V73.0962L44.665 87.2992H42.0421V68.0288H45.1111V82.0355L55.2281 68.0288H57.8331Z" fill="#562212"/>
<path d="M69.7355 87.8345C67.8323 87.8345 66.1491 87.4241 64.686 86.6033C63.2228 85.7707 62.069 84.6287 61.2244 83.1775L63.7581 81.5359C64.46 82.5946 65.2986 83.4094 66.274 83.9804C67.2494 84.5395 68.3616 84.819 69.6106 84.819C70.9191 84.819 71.96 84.5217 72.7332 83.9269C73.5064 83.3202 73.893 82.5054 73.893 81.4824C73.893 80.7211 73.7026 80.1382 73.322 79.7338C72.9413 79.3293 72.3941 79.0498 71.6804 78.8952C70.9667 78.7405 70.1162 78.6632 69.1289 78.6632H67.1305V76.0403H69.111C70.36 76.0403 71.3771 75.8381 72.1622 75.4336C72.9473 75.0292 73.3398 74.3393 73.3398 73.3638C73.3398 72.3646 72.9711 71.639 72.2336 71.187C71.5079 70.7231 70.6396 70.4911 69.6285 70.4911C68.5579 70.4911 67.5349 70.7171 66.5595 71.1691C65.5841 71.6093 64.7454 72.1684 64.0436 72.8464L62.1166 70.6874C63.1158 69.6644 64.2637 68.8793 65.5603 68.3321C66.8688 67.773 68.2903 67.4935 69.8248 67.4935C71.0619 67.4935 72.1919 67.7135 73.2149 68.1537C74.2498 68.5819 75.0706 69.2183 75.6773 70.0629C76.2958 70.8956 76.6051 71.9126 76.6051 73.114C76.6051 74.137 76.3672 75.047 75.8914 75.844C75.4156 76.641 74.7137 77.3369 73.7859 77.9316L73.661 76.8075C74.4461 76.9979 75.0944 77.3488 75.6059 77.8603C76.1293 78.3599 76.5159 78.9546 76.7657 79.6446C77.0155 80.3345 77.1404 81.0542 77.1404 81.8036C77.1404 83.0645 76.8073 84.147 76.1412 85.051C75.4869 85.9432 74.6007 86.6331 73.4826 87.1208C72.3644 87.5966 71.1154 87.8345 69.7355 87.8345Z" fill="#562212"/>
<path d="M81.0388 87.2992V68.0288H84.2149V76.1473H94.3497V68.0288H97.5257V87.2992H94.3497V79.1628H84.2149V87.2992H81.0388Z" fill="#562212"/>
<path d="M110.875 87.8345C108.983 87.8345 107.33 87.4182 105.914 86.5855C104.511 85.7409 103.416 84.5692 102.631 83.0704C101.846 81.5597 101.453 79.7992 101.453 77.7889C101.453 75.6834 101.84 73.8634 102.613 72.3289C103.386 70.7825 104.463 69.593 105.843 68.7603C107.235 67.9158 108.864 67.4935 110.732 67.4935C112.671 67.4935 114.318 67.9396 115.674 68.8317C117.042 69.7239 118.065 70.9967 118.743 72.6501C119.433 74.3036 119.731 76.2722 119.635 78.5562H116.424V77.4142C116.388 75.047 115.906 73.2806 114.978 72.1148C114.051 70.9372 112.671 70.3484 110.839 70.3484C108.876 70.3484 107.383 70.9788 106.36 72.2397C105.337 73.5006 104.826 75.3087 104.826 77.664C104.826 79.936 105.337 81.6965 106.36 82.9455C107.383 84.1945 108.84 84.819 110.732 84.819C112.005 84.819 113.111 84.5276 114.051 83.9447C114.99 83.3619 115.728 82.5232 116.263 81.4289L119.314 82.4816C118.565 84.1826 117.435 85.503 115.924 86.4428C114.425 87.3706 112.742 87.8345 110.875 87.8345ZM103.755 78.5562V76.0046H117.994V78.5562H103.755Z" fill="#562212"/>
<path d="M131.727 87.8345C129.776 87.8345 128.116 87.4003 126.748 86.532C125.392 85.6517 124.357 84.4443 123.644 82.9098C122.93 81.3753 122.561 79.6267 122.537 77.664C122.561 75.6537 122.936 73.8872 123.662 72.3646C124.399 70.8301 125.452 69.6346 126.82 68.7782C128.188 67.9217 129.835 67.4935 131.762 67.4935C133.796 67.4935 135.545 67.9931 137.008 68.9923C138.483 69.9915 139.47 71.3595 139.97 73.0962L136.83 74.0419C136.425 72.9237 135.765 72.0553 134.849 71.4368C133.945 70.8182 132.904 70.509 131.727 70.509C130.406 70.509 129.318 70.8182 128.461 71.4368C127.605 72.0435 126.968 72.888 126.552 73.9705C126.136 75.0411 125.922 76.2722 125.91 77.664C125.934 79.8052 126.427 81.5359 127.391 82.8563C128.366 84.1648 129.811 84.819 131.727 84.819C132.988 84.819 134.034 84.5336 134.867 83.9626C135.7 83.3797 136.33 82.5411 136.758 81.4467L139.97 82.2853C139.304 84.0815 138.263 85.4554 136.848 86.4071C135.432 87.3587 133.725 87.8345 131.727 87.8345Z" fill="#562212"/>
<path d="M180.521 91.3438L172.966 98.8981L180.521 113.467L188.075 98.8981L180.521 91.3438Z" fill="#E25C45"/>
<path d="M180.525 29.1797C180.591 29.2165 197.627 38.6436 200.593 52.3633C203.928 67.7939 190.807 92.6357 190.807 92.6357L180.517 83.5703L170.234 92.6357C170.222 92.6135 157.114 67.787 160.447 52.3633C163.419 38.6166 180.525 29.1797 180.525 29.1797ZM180.525 39.3076C180.525 39.3076 171.221 45.0904 169.152 52.3633C166.602 61.3232 173.461 77.8821 173.481 77.9307L180.517 71.4033L187.56 77.9307C187.578 77.8869 194.44 61.3245 191.89 52.3633C189.82 45.0903 180.525 39.3076 180.525 39.3076ZM180.524 51.6279C183.504 51.6281 185.919 54.0444 185.919 57.0244C185.919 60.0043 183.503 62.4197 180.524 62.4199C177.544 62.4199 175.127 60.0044 175.127 57.0244C175.127 54.0443 177.544 51.6279 180.524 51.6279ZM211 27.085L203.565 35.2627L196.13 27.085L203.565 18.9063L211 27.085Z" fill="#DDA671"/>
</svg>
